<svg version="1.1" id="Layer_1" xmlns="http://www.w3.org/2000/svg" xmlns:xlink="http://www.w3.org/1999/xlink" x="0px" y="0px"
	 viewBox="0 0 390 260" fill="#1a1a1a" style="enable-background:new 0 0 340 300;" xml:space="preserve">
<g>
	<rect x="0" y="0" width="390" height="20"/>
	<rect x="0" y="40" width="390" height="20"/>
	
	<rect x="0" y="80" width="290" height="20"/>
	<rect x="310" y="80" width="80" height="20"/>

	<rect x="0" y="120" width="290" height="20"/>
	<rect x="310" y="120" width="80" height="20"/>

	<rect x="310" y="120" width="20" height="60"/>
	
	<rect x="0" y="160" width="290" height="20"/>

	<rect x="0" y="200" width="390" height="20"/>
	<rect x="0" y="240" width="390" height="20"/>

	<!-- <rect x="0" y="80" width="340" height="20"/>
	<rect x="0" y="160" width="340" height="20"/>
	<rect x="260" y="240" width="80" height="20"/>
	<rect x="260" y="240" width="20" height="60"/>
	<rect x="0" y="240" width="240" height="20"/>
	<rect x="0" y="200" width="240" height="20"/>
	<rect x="260" y="200" width="80" height="20"/>
	<rect x="0" y="120" width="340" height="20"/> -->
</g>
</svg>