<svg id="Layer_1" data-name="Layer 1" xmlns="http://www.w3.org/2000/svg" viewBox="0 0 500 500"><defs><style>.cls-1{fill:#fff;}</style></defs><rect width="500" height="500"/><polygon class="cls-1" points="175.1 239.89 164.99 250 175.1 260.11 175.1 300.55 114.44 300.55 114.44 280.33 154.88 280.33 154.88 260.11 114.44 260.11 114.44 239.89 154.88 239.89 154.88 219.67 94.22 219.67 94.22 300.55 74 300.55 74 199.45 175.1 199.45 175.1 239.89"/><path class="cls-1" d="M242.88,223.8a10.77,10.77,0,0,0-6.11-3.75,10.36,10.36,0,0,0,2.65-17.5q-3.72-3-10.7-3H208.43V244h22.66a14.33,14.33,0,0,0,10.14-3.62,12.34,12.34,0,0,0,3.9-9.49A10.91,10.91,0,0,0,242.88,223.8Zm-26.83-18h10.86a13.51,13.51,0,0,1,6.27,1.19c1.48.79,2.21,2.43,2.21,4.93,0,2.21-.7,3.77-2.12,4.71s-3.62,1.4-6.61,1.4H216.05Zm18.72,30.27a14,14,0,0,1-7.05,1.5H216.05V223.67h11.54a24.6,24.6,0,0,1,3.69.25,11.37,11.37,0,0,1,3,.94,4.83,4.83,0,0,1,2.25,2.15,7.73,7.73,0,0,1,.78,3.65C237.33,233.28,236.47,235.09,234.77,236.09Z"/><path class="cls-1" d="M278.65,199.52,267,219.18l-11.79-19.66h-9L263,226.29V244h7.68V226.29l12.47-20,4.21-6.74,0-.07Z"/><path class="cls-1" d="M319.12,206.26v-6.74l-31.77.07H283v6.74h.15l14,0,.08,37.71,7.8,0-.08-37.7Z"/><path class="cls-1" d="M357.25,237.21l-24.66,0,0-13.11,22.54-.05,0-6.3-22.53,0,0-11.79,24.28-.05,0-6.55-32,.06.08,44.44,32.4-.06Z"/><path class="cls-1" d="M239.2,261.67v-6.62H208.43v44.44h7.87V280.08h20.09v-6.3H216.3V261.67Z"/><path class="cls-1" d="M279.93,260.45A19.79,19.79,0,0,0,264.6,254q-9.92,0-15.69,6.59t-5.78,16.69q0,10.43,5.9,16.85t15.45,6.43q9.48,0,15.41-6.46t5.93-16.82Q285.82,266.91,279.93,260.45Zm-5.62,29A11.79,11.79,0,0,1,264.6,294a12.06,12.06,0,0,1-10-4.56Q251,284.88,251,277.15q0-7.56,3.68-12.08a12.9,12.9,0,0,1,19.63,0q3.65,4.51,3.65,12.14T274.31,289.41Z"/><path class="cls-1" d="M329.89,298.8a3.77,3.77,0,0,1-.44-.9c-.13-.36-.23-.67-.31-.94s-.18-.67-.28-1.18-.18-.92-.22-1.19-.1-.74-.16-1.4-.1-1.14-.12-1.41-.07-.82-.13-1.65-.11-1.39-.15-1.69c-.09-1.12-.18-2-.28-2.71a15.88,15.88,0,0,0-.6-2.41,7.42,7.42,0,0,0-1.09-2.24,6.57,6.57,0,0,0-1.84-1.62,9,9,0,0,0-2.81-1.13,10.73,10.73,0,0,0,5.43-4.09,11.83,11.83,0,0,0,1.93-6.83q0-6.44-4.18-9.39t-10.79-3h-21v44.44h7.74V281.14h10.36c3.66,0,6.15.67,7.46,2s2.07,3.84,2.28,7.46c0,.25,0,.68.06,1.31s.06,1.06.06,1.31l.13,1.12.12,1.13a5.67,5.67,0,0,0,.1,1c.06.4.11.71.15.94s.11.48.19.75a6.53,6.53,0,0,0,.28.75,4,4,0,0,0,.34.59h8.37A4.12,4.12,0,0,1,329.89,298.8ZM320.24,272a4.82,4.82,0,0,1-2.43,2.15,14.31,14.31,0,0,1-3.15.91,25.44,25.44,0,0,1-3.81.25h-10.3V261.42h11.3a20.52,20.52,0,0,1,3.46.25,10.14,10.14,0,0,1,2.87.93,4.8,4.8,0,0,1,2.16,2.09,7.44,7.44,0,0,1,.75,3.53A7.73,7.73,0,0,1,320.24,272Z"/><path class="cls-1" d="M372.14,255.05l-12,34.77-12.42-34.77H336.81v44.44h7.37V265.23l11,29.8h9.62l10.75-29.8v34.26H383V255.05Z"/><path class="cls-1" d="M420.07,276.65q-2.69-1.5-10.11-3.37-.81-.19-2.31-.63a33.52,33.52,0,0,1-7.34-2.43c-1.1-.67-1.65-1.9-1.65-3.68a5.31,5.31,0,0,1,2.25-4.53,10.37,10.37,0,0,1,6.24-1.65c6,0,9.21,2.59,9.68,7.8h7.42q-.25-7.11-4.8-10.56t-11.8-3.43q-7.48,0-12,3.53a11.44,11.44,0,0,0-4.46,9.46V268a10,10,0,0,0,5.8,8.68q2.63,1.37,10.93,3.49c.17,0,.4.1.69.19,2.58.66,4.39,1.19,5.43,1.56a8,8,0,0,1,2.9,1.91,4.68,4.68,0,0,1,1.34,3.46,6,6,0,0,1-2.52,5.15,11.75,11.75,0,0,1-7,1.84,13.69,13.69,0,0,1-8.3-2.34c-2.12-1.56-3.19-4-3.19-7.21h-7.67q0,7.74,5.18,11.73t13.55,4a28.35,28.35,0,0,0,5.18-.47,20.34,20.34,0,0,0,4.8-1.53,14.67,14.67,0,0,0,4-2.65,11.69,11.69,0,0,0,2.68-4,13.69,13.69,0,0,0,1-5.31A10.53,10.53,0,0,0,420.07,276.65Z"/><polygon class="cls-1" points="319.11 199.52 278.65 199.52 288.74 202.28 319.11 199.52"/></svg>