<svg id="Layer_1" data-name="Layer 1" xmlns="http://www.w3.org/2000/svg" viewBox="0 0 1382 250"><defs><style>.cls-1{fill:#fff;}</style></defs><polygon class="cls-1" points="250 100 225 125 250 150 250 250 100 250 100 200 200 200 200 150 100 150 100 100 200 100 200 50 50 50 50 250 0 250 0 0 250 0 250 100"/><path class="cls-1" d="M839.1,86.42V70.06H763V179.94h19.44v-48h49.7V116.36h-49.7V86.42Z"/><path class="cls-1" d="M939.8,83.41q-14.58-16-37.88-16-24.54,0-38.82,16.29T848.83,125q0,25.77,14.58,41.67t38.2,15.9q23.45,0,38.12-16T954.39,125Q954.39,99.38,939.8,83.41ZM925.91,155q-9,11.34-24,11.34-15.61,0-24.62-11.27t-9-30.4q0-18.68,9.11-29.86t24.23-11.19q15.27,0,24.3,11.19t9,30Q934.94,143.66,925.91,155Z"/><path class="cls-1" d="M1063.35,178.24a9.46,9.46,0,0,1-1.09-2.23c-.3-.88-.57-1.66-.77-2.32s-.43-1.65-.69-2.93-.43-2.27-.54-2.93-.23-1.82-.39-3.48-.26-2.8-.31-3.47-.15-2-.3-4.09-.28-3.44-.39-4.16q-.3-4.17-.69-6.72a40.77,40.77,0,0,0-1.47-5.94,18.83,18.83,0,0,0-2.7-5.56,16.65,16.65,0,0,0-4.55-4,22.61,22.61,0,0,0-7-2.78,26.64,26.64,0,0,0,13.43-10.1,29.36,29.36,0,0,0,4.78-16.9q0-15.91-10.34-23.23t-26.7-7.33h-52V179.94h19.14V134.57h25.62c9,0,15.2,1.67,18.44,5s5.13,9.5,5.63,18.45c0,.61,0,1.69.16,3.24s.15,2.62.15,3.24l.31,2.78.31,2.77a16.65,16.65,0,0,0,.23,2.4c.16,1,.28,1.74.39,2.31a18.44,18.44,0,0,0,.46,1.85,13.55,13.55,0,0,0,.7,1.86,8.26,8.26,0,0,0,.84,1.46h20.68A10.9,10.9,0,0,1,1063.35,178.24ZM1039.5,112a11.9,11.9,0,0,1-6,5.32,35.55,35.55,0,0,1-7.79,2.24,62.37,62.37,0,0,1-9.42.62H990.81V85.8h27.93a50.91,50.91,0,0,1,8.57.62,25.43,25.43,0,0,1,7.1,2.31,11.77,11.77,0,0,1,5.32,5.17,18.34,18.34,0,0,1,1.85,8.72A19.07,19.07,0,0,1,1039.5,112Z"/><path class="cls-1" d="M1167.83,70.06l-29.63,86-30.72-86h-27V179.94h18.21V95.21l27.25,73.7h23.8l26.58-73.7v84.73h18.36V70.06Z"/><path class="cls-1" d="M1286.35,123.46q-6.64-3.7-25-8.34c-1.34-.31-3.24-.83-5.71-1.54q-14.06-3.57-18.15-6t-4.07-9.1A13.12,13.12,0,0,1,1239,87.27c3.71-2.74,8.85-4.09,15.44-4.09q22.21,0,23.92,19.29h18.36q-.62-17.59-11.88-26.1t-29.17-8.49q-18.53,0-29.57,8.74T1215,100v2.16q.92,14.49,14.35,21.45,6.48,3.38,27,8.64c.4.1,1,.25,1.7.47,6.37,1.63,10.85,2.93,13.43,3.85a19.61,19.61,0,0,1,7.17,4.71,11.59,11.59,0,0,1,3.32,8.57,14.85,14.85,0,0,1-6.25,12.73q-6.26,4.56-17.36,4.55-12.66,0-20.54-5.79c-5.23-3.85-7.87-9.8-7.87-17.82h-19q0,19.14,12.81,29t33.51,9.88a68.82,68.82,0,0,0,12.81-1.16,50.89,50.89,0,0,0,11.88-3.78,36.13,36.13,0,0,0,9.88-6.56,28.42,28.42,0,0,0,6.63-9.8A33.55,33.55,0,0,0,1301,148Q1301,131.32,1286.35,123.46Z"/><path class="cls-1" d="M410.18,130.12a26.77,26.77,0,0,0-15.13-9.26,24.62,24.62,0,0,0,15.74-23.15q0-12.67-9.18-20.14t-26.47-7.49H325V180h56q15.44,0,25.08-9t9.64-23.45Q415.73,137.06,410.18,130.12ZM343.81,85.67h26.86q10,0,15.51,2.93t5.48,12.19c0,5.47-1.75,9.34-5.25,11.66s-9,3.47-16.36,3.47H343.81Zm46.3,74.85q-6.32,3.71-17.44,3.7H343.81V129.81h28.56a60,60,0,0,1,9.1.61,28.5,28.5,0,0,1,7.49,2.32,11.92,11.92,0,0,1,5.55,5.32,19.21,19.21,0,0,1,1.93,9Q396.44,156.81,390.11,160.52Z"/><path class="cls-1" d="M498.61,70.08,469.75,118.7,440.58,70.08H418.36l41.51,66.21V180h19V136.29l30.84-49.36,10.42-16.68.1-.17Z"/><path class="cls-1" d="M598.69,86.75l0-16.67-78.55.17-10.81,0,0,16.66h.36l34.68-.07.18,93.23,19.29-.05-.18-93.21Z"/><path class="cls-1" d="M693,163.28l-61,.13L632,131l55.73-.11,0-15.59-55.73.11,0-29.17,60-.1,0-16.21-79.18.16L612.9,180,693,179.8Z"/><polygon class="cls-1" points="598.66 70.08 498.61 70.08 523.56 76.91 598.66 70.08"/><path class="cls-1" d="M1370,12V238H214V12H1370m12-12H202V250H1382V0Z"/></svg>